<mxfile host="65bd71144e">
    <diagram id="kJunCA1lW_BP7T0hUIQ9" name="ページ1">
        <mxGraphModel dx="1636" dy="740" grid="1" gridSize="10" guides="1" tooltips="1" connect="1" arrows="1" fold="1" page="1" pageScale="1" pageWidth="3300" pageHeight="2339" math="0" shadow="0">
            <root>
                <mxCell id="0"/>
                <mxCell id="1" parent="0"/>
                <mxCell id="32" value="" style="endArrow=classic;html=1;exitX=1;exitY=0.25;exitDx=0;exitDy=0;" parent="1" source="30" edge="1">
                    <mxGeometry x="260" y="180" width="50" height="50" as="geometry">
                        <mxPoint x="1030" y="600" as="sourcePoint"/>
                        <mxPoint x="1229" y="460" as="targetPoint"/>
                        <Array as="points">
                            <mxPoint x="1229" y="228"/>
                        </Array>
                    </mxGeometry>
                </mxCell>
                <mxCell id="33" value="" style="endArrow=classic;html=1;" parent="1" edge="1">
                    <mxGeometry x="260" y="180" width="50" height="50" as="geometry">
                        <mxPoint x="709" y="250" as="sourcePoint"/>
                        <mxPoint x="1070" y="470" as="targetPoint"/>
                        <Array as="points">
                            <mxPoint x="1070" y="250"/>
                        </Array>
                    </mxGeometry>
                </mxCell>
                <mxCell id="50" value="" style="endArrow=classic;html=1;exitX=1;exitY=0.5;exitDx=0;exitDy=0;" parent="1" source="43" edge="1">
                    <mxGeometry x="260" y="180" width="50" height="50" as="geometry">
                        <mxPoint x="990" y="580" as="sourcePoint"/>
                        <mxPoint x="620" y="496" as="targetPoint"/>
                    </mxGeometry>
                </mxCell>
                <mxCell id="52" value="" style="endArrow=classic;html=1;exitX=1;exitY=0.5;exitDx=0;exitDy=0;" parent="1" source="44" edge="1">
                    <mxGeometry x="260" y="180" width="50" height="50" as="geometry">
                        <mxPoint x="870" y="580" as="sourcePoint"/>
                        <mxPoint x="620" y="525" as="targetPoint"/>
                    </mxGeometry>
                </mxCell>
                <mxCell id="53" value="" style="endArrow=classic;html=1;exitX=1;exitY=0.5;exitDx=0;exitDy=0;" parent="1" source="42" edge="1">
                    <mxGeometry x="260" y="180" width="50" height="50" as="geometry">
                        <mxPoint x="870" y="580" as="sourcePoint"/>
                        <mxPoint x="950" y="560" as="targetPoint"/>
                        <Array as="points">
                            <mxPoint x="590" y="580"/>
                            <mxPoint x="590" y="740"/>
                            <mxPoint x="910" y="740"/>
                            <mxPoint x="910" y="560"/>
                        </Array>
                    </mxGeometry>
                </mxCell>
                <mxCell id="66" value="" style="endArrow=classic;html=1;" parent="1" edge="1">
                    <mxGeometry x="260" y="180" width="50" height="50" as="geometry">
                        <mxPoint x="820" y="525" as="sourcePoint"/>
                        <mxPoint x="950" y="525" as="targetPoint"/>
                    </mxGeometry>
                </mxCell>
                <mxCell id="70" value="" style="endArrow=classic;html=1;entryX=0;entryY=0.5;entryDx=0;entryDy=0;" parent="1" target="54" edge="1">
                    <mxGeometry x="260" y="180" width="50" height="50" as="geometry">
                        <mxPoint x="710" y="270" as="sourcePoint"/>
                        <mxPoint x="920" y="530" as="targetPoint"/>
                        <Array as="points">
                            <mxPoint x="965" y="270"/>
                        </Array>
                    </mxGeometry>
                </mxCell>
                <mxCell id="71" value="" style="endArrow=classic;html=1;" parent="1" edge="1">
                    <mxGeometry x="260" y="180" width="50" height="50" as="geometry">
                        <mxPoint x="820" y="485" as="sourcePoint"/>
                        <mxPoint x="1050" y="485" as="targetPoint"/>
                    </mxGeometry>
                </mxCell>
                <mxCell id="72" value="" style="endArrow=classic;html=1;exitX=1;exitY=1;exitDx=0;exitDy=0;" parent="1" source="55" edge="1">
                    <mxGeometry x="260" y="180" width="50" height="50" as="geometry">
                        <mxPoint x="870" y="580" as="sourcePoint"/>
                        <mxPoint x="1050" y="540" as="targetPoint"/>
                    </mxGeometry>
                </mxCell>
                <mxCell id="76" value="" style="endArrow=classic;html=1;exitX=0.5;exitY=1;exitDx=0;exitDy=0;entryX=0;entryY=0.25;entryDx=0;entryDy=0;" parent="1" source="26" target="U62jKR7IKzltQJdGUj3Z-36" edge="1">
                    <mxGeometry x="260" y="180" width="50" height="50" as="geometry">
                        <mxPoint x="870" y="580" as="sourcePoint"/>
                        <mxPoint x="1150" y="510" as="targetPoint"/>
                    </mxGeometry>
                </mxCell>
                <mxCell id="77" value="" style="endArrow=classic;html=1;entryX=0;entryY=0.75;entryDx=0;entryDy=0;" parent="1" target="U62jKR7IKzltQJdGUj3Z-36" edge="1">
                    <mxGeometry x="260" y="180" width="50" height="50" as="geometry">
                        <mxPoint x="880" y="526" as="sourcePoint"/>
                        <mxPoint x="1080" y="640" as="targetPoint"/>
                        <Array as="points">
                            <mxPoint x="880" y="610"/>
                        </Array>
                    </mxGeometry>
                </mxCell>
                <mxCell id="79" value="" style="endArrow=classic;html=1;entryX=0;entryY=0.5;entryDx=0;entryDy=0;entryPerimeter=0;" parent="1" target="45" edge="1">
                    <mxGeometry x="260" y="180" width="50" height="50" as="geometry">
                        <mxPoint x="390" y="480" as="sourcePoint"/>
                        <mxPoint x="920" y="530" as="targetPoint"/>
                    </mxGeometry>
                </mxCell>
                <mxCell id="86" style="edgeStyle=orthogonalEdgeStyle;rounded=0;orthogonalLoop=1;jettySize=auto;html=1;exitX=1;exitY=0.25;exitDx=0;exitDy=0;entryX=0.25;entryY=0.625;entryDx=0;entryDy=0;entryPerimeter=0;" parent="1" source="U62jKR7IKzltQJdGUj3Z-44" target="61" edge="1">
                    <mxGeometry x="260" y="180" as="geometry"/>
                </mxCell>
                <mxCell id="87" value="result" style="text;html=1;strokeColor=none;fillColor=none;align=center;verticalAlign=middle;whiteSpace=wrap;rounded=0;container=0;" parent="1" vertex="1">
                    <mxGeometry x="1100" y="510" width="40" height="20" as="geometry"/>
                </mxCell>
                <mxCell id="88" value="memWrite" style="text;html=1;strokeColor=none;fillColor=none;align=center;verticalAlign=middle;whiteSpace=wrap;rounded=0;container=0;" parent="1" vertex="1">
                    <mxGeometry x="710" y="210" width="70" height="20" as="geometry"/>
                </mxCell>
                <mxCell id="89" value="" style="endArrow=classic;html=1;entryX=0;entryY=0.5;entryDx=0;entryDy=0;exitX=1.009;exitY=0.123;exitDx=0;exitDy=0;exitPerimeter=0;" parent="1" source="30" target="59" edge="1">
                    <mxGeometry x="260" y="180" width="50" height="50" as="geometry">
                        <mxPoint x="920" y="580" as="sourcePoint"/>
                        <mxPoint x="970" y="530" as="targetPoint"/>
                        <Array as="points">
                            <mxPoint x="1355" y="203"/>
                        </Array>
                    </mxGeometry>
                </mxCell>
                <mxCell id="90" value="" style="endArrow=classic;html=1;exitX=0.5;exitY=0;exitDx=0;exitDy=0;" parent="1" source="87" target="60" edge="1">
                    <mxGeometry x="260" y="180" width="50" height="50" as="geometry">
                        <mxPoint x="920" y="580" as="sourcePoint"/>
                        <mxPoint x="970" y="530" as="targetPoint"/>
                        <Array as="points">
                            <mxPoint x="1120" y="400"/>
                            <mxPoint x="1290" y="400"/>
                            <mxPoint x="1290" y="517"/>
                        </Array>
                    </mxGeometry>
                </mxCell>
                <mxCell id="30" value="" style="rounded=0;whiteSpace=wrap;html=1;container=0;" parent="1" vertex="1">
                    <mxGeometry x="620" y="180" width="90" height="190" as="geometry"/>
                </mxCell>
                <mxCell id="31" value="controlUnit" style="text;html=1;strokeColor=none;fillColor=none;align=center;verticalAlign=middle;whiteSpace=wrap;rounded=0;container=0;" parent="1" vertex="1">
                    <mxGeometry x="635" y="330" width="60" height="20" as="geometry"/>
                </mxCell>
                <mxCell id="61" value="1" style="text;html=1;strokeColor=none;fillColor=none;align=center;verticalAlign=middle;whiteSpace=wrap;rounded=0;container=0;" parent="1" vertex="1">
                    <mxGeometry x="1330" y="537.7142857142857" width="40" height="22.85714285714285" as="geometry"/>
                </mxCell>
                <mxCell id="93" value="" style="group" parent="1" vertex="1" connectable="0">
                    <mxGeometry x="260" y="450" width="140" height="80" as="geometry"/>
                </mxCell>
                <mxCell id="36" value="命令メモリ" style="rounded=0;whiteSpace=wrap;html=1;container=0;" parent="93" vertex="1">
                    <mxGeometry x="10" width="120" height="80" as="geometry"/>
                </mxCell>
                <mxCell id="37" value="AD" style="text;html=1;strokeColor=none;fillColor=none;align=center;verticalAlign=middle;whiteSpace=wrap;rounded=0;container=0;" parent="93" vertex="1">
                    <mxGeometry y="22.21777777777777" width="40" height="17.77777777777778" as="geometry"/>
                </mxCell>
                <mxCell id="38" value="RD" style="text;html=1;strokeColor=none;fillColor=none;align=center;verticalAlign=middle;whiteSpace=wrap;rounded=0;container=0;" parent="93" vertex="1">
                    <mxGeometry x="100" y="22" width="40" height="18" as="geometry"/>
                </mxCell>
                <mxCell id="166" value="pc" style="text;html=1;strokeColor=none;fillColor=none;align=center;verticalAlign=middle;whiteSpace=wrap;rounded=0;" parent="93" vertex="1">
                    <mxGeometry x="-30" y="10" width="40" height="20" as="geometry"/>
                </mxCell>
                <mxCell id="94" value="" style="group" parent="1" vertex="1" connectable="0">
                    <mxGeometry x="450" y="450" width="80" height="160" as="geometry"/>
                </mxCell>
                <mxCell id="40" value="" style="rounded=0;whiteSpace=wrap;html=1;container=0;" parent="94" vertex="1">
                    <mxGeometry width="80" height="160" as="geometry"/>
                </mxCell>
                <mxCell id="41" value="decoder" style="text;html=1;strokeColor=none;fillColor=none;align=center;verticalAlign=middle;whiteSpace=wrap;rounded=0;container=0;" parent="94" vertex="1">
                    <mxGeometry x="15" y="140" width="40" height="20" as="geometry"/>
                </mxCell>
                <mxCell id="42" value="signImm" style="text;html=1;strokeColor=none;fillColor=none;align=center;verticalAlign=middle;whiteSpace=wrap;rounded=0;container=0;" parent="94" vertex="1">
                    <mxGeometry x="20" y="120" width="50" height="20" as="geometry"/>
                </mxCell>
                <mxCell id="43" value="rs1" style="text;html=1;strokeColor=none;fillColor=none;align=center;verticalAlign=middle;whiteSpace=wrap;rounded=0;container=0;" parent="94" vertex="1">
                    <mxGeometry x="40" y="36" width="40" height="20" as="geometry"/>
                </mxCell>
                <mxCell id="44" value="rs2" style="text;html=1;strokeColor=none;fillColor=none;align=center;verticalAlign=middle;whiteSpace=wrap;rounded=0;container=0;" parent="94" vertex="1">
                    <mxGeometry x="40" y="65" width="40" height="20" as="geometry"/>
                </mxCell>
                <mxCell id="45" value="instruction" style="text;html=1;strokeColor=none;fillColor=none;align=center;verticalAlign=middle;whiteSpace=wrap;rounded=0;container=0;" parent="94" vertex="1">
                    <mxGeometry y="20" width="60" height="20" as="geometry"/>
                </mxCell>
                <mxCell id="161" value="rd" style="text;html=1;strokeColor=none;fillColor=none;align=center;verticalAlign=middle;whiteSpace=wrap;rounded=0;" parent="94" vertex="1">
                    <mxGeometry x="40" y="90" width="40" height="20" as="geometry"/>
                </mxCell>
                <mxCell id="95" value="" style="group" parent="1" vertex="1" connectable="0">
                    <mxGeometry x="610" y="450" width="220" height="180" as="geometry"/>
                </mxCell>
                <mxCell id="U62jKR7IKzltQJdGUj3Z-9" value="" style="rounded=0;whiteSpace=wrap;html=1;container=0;" parent="95" vertex="1">
                    <mxGeometry x="10" width="200" height="180" as="geometry"/>
                </mxCell>
                <mxCell id="U62jKR7IKzltQJdGUj3Z-10" value="&lt;font style=&quot;font-size: 14px&quot;&gt;regFile&lt;/font&gt;" style="text;html=1;strokeColor=none;fillColor=none;align=center;verticalAlign=middle;whiteSpace=wrap;rounded=0;container=0;" parent="95" vertex="1">
                    <mxGeometry x="80" y="140" width="60" height="30" as="geometry"/>
                </mxCell>
                <mxCell id="U62jKR7IKzltQJdGUj3Z-11" value="" style="triangle;whiteSpace=wrap;html=1;direction=south;container=0;" parent="95" vertex="1">
                    <mxGeometry x="30" width="30" height="20" as="geometry"/>
                </mxCell>
                <mxCell id="U62jKR7IKzltQJdGUj3Z-25" value="rd" style="text;html=1;strokeColor=none;fillColor=none;align=center;verticalAlign=middle;whiteSpace=wrap;rounded=0;container=0;" parent="95" vertex="1">
                    <mxGeometry x="20" y="90" width="20" height="20" as="geometry"/>
                </mxCell>
                <mxCell id="U62jKR7IKzltQJdGUj3Z-30" value="d" style="text;html=1;strokeColor=none;fillColor=none;align=center;verticalAlign=middle;whiteSpace=wrap;rounded=0;container=0;" parent="95" vertex="1">
                    <mxGeometry x="20" y="125" width="20" height="20" as="geometry"/>
                </mxCell>
                <mxCell id="U62jKR7IKzltQJdGUj3Z-31" value="rs1" style="text;html=1;strokeColor=none;fillColor=none;align=center;verticalAlign=middle;whiteSpace=wrap;rounded=0;container=0;" parent="95" vertex="1">
                    <mxGeometry y="30" width="60" height="30" as="geometry"/>
                </mxCell>
                <mxCell id="U62jKR7IKzltQJdGUj3Z-32" value="rs2" style="text;html=1;strokeColor=none;fillColor=none;align=center;verticalAlign=middle;whiteSpace=wrap;rounded=0;container=0;" parent="95" vertex="1">
                    <mxGeometry y="60" width="60" height="30" as="geometry"/>
                </mxCell>
                <mxCell id="U62jKR7IKzltQJdGUj3Z-33" value="rd1" style="text;html=1;strokeColor=none;fillColor=none;align=center;verticalAlign=middle;whiteSpace=wrap;rounded=0;container=0;" parent="95" vertex="1">
                    <mxGeometry x="175" y="20" width="30" height="30" as="geometry"/>
                </mxCell>
                <mxCell id="U62jKR7IKzltQJdGUj3Z-34" value="rd2" style="text;html=1;strokeColor=none;fillColor=none;align=center;verticalAlign=middle;whiteSpace=wrap;rounded=0;container=0;" parent="95" vertex="1">
                    <mxGeometry x="160" y="60" width="60" height="30" as="geometry"/>
                </mxCell>
                <mxCell id="U62jKR7IKzltQJdGUj3Z-35" value="we_reg" style="text;html=1;strokeColor=none;fillColor=none;align=center;verticalAlign=middle;whiteSpace=wrap;rounded=0;container=0;" parent="95" vertex="1">
                    <mxGeometry x="100" y="10" width="50" height="20" as="geometry"/>
                </mxCell>
                <mxCell id="96" value="" style="group" parent="1" vertex="1" connectable="0">
                    <mxGeometry x="940" y="510" width="40" height="70" as="geometry"/>
                </mxCell>
                <mxCell id="54" value="" style="shape=trapezoid;perimeter=trapezoidPerimeter;whiteSpace=wrap;html=1;fixedSize=1;direction=south;size=10;container=0;" parent="96" vertex="1">
                    <mxGeometry x="10" width="30" height="70" as="geometry"/>
                </mxCell>
                <mxCell id="55" value="0" style="text;html=1;strokeColor=none;fillColor=none;align=center;verticalAlign=middle;whiteSpace=wrap;rounded=0;container=0;" parent="96" vertex="1">
                    <mxGeometry y="10" width="40" height="20" as="geometry"/>
                </mxCell>
                <mxCell id="56" value="1" style="text;html=1;strokeColor=none;fillColor=none;align=center;verticalAlign=middle;whiteSpace=wrap;rounded=0;container=0;" parent="96" vertex="1">
                    <mxGeometry y="40" width="40" height="20" as="geometry"/>
                </mxCell>
                <mxCell id="97" value="" style="group" parent="1" vertex="1" connectable="0">
                    <mxGeometry x="1050" y="470" width="43.558282208588935" height="80" as="geometry"/>
                </mxCell>
                <mxCell id="12" value="" style="endArrow=none;html=1;" parent="97" edge="1">
                    <mxGeometry width="30.674846625766868" height="26.66666666666667" as="geometry">
                        <mxPoint x="0.6134969325153179" y="26.666666666666686" as="sourcePoint"/>
                        <mxPoint x="0.6134969325153179" as="targetPoint"/>
                    </mxGeometry>
                </mxCell>
                <mxCell id="15" value="" style="endArrow=none;html=1;" parent="97" edge="1">
                    <mxGeometry width="30.674846625766868" height="26.66666666666667" as="geometry">
                        <mxPoint x="0.6134969325153179" y="80" as="sourcePoint"/>
                        <mxPoint x="0.6134969325153179" y="53.33333333333337" as="targetPoint"/>
                    </mxGeometry>
                </mxCell>
                <mxCell id="16" value="" style="endArrow=none;html=1;" parent="97" edge="1">
                    <mxGeometry width="30.674846625766868" height="26.66666666666667" as="geometry">
                        <mxPoint x="43.558282208588935" y="16" as="sourcePoint"/>
                        <mxPoint x="0.6134969325153179" as="targetPoint"/>
                    </mxGeometry>
                </mxCell>
                <mxCell id="17" value="" style="endArrow=none;html=1;" parent="97" edge="1">
                    <mxGeometry width="30.674846625766868" height="26.66666666666667" as="geometry">
                        <mxPoint x="43.558282208588935" y="64" as="sourcePoint"/>
                        <mxPoint y="80" as="targetPoint"/>
                    </mxGeometry>
                </mxCell>
                <mxCell id="18" value="" style="endArrow=none;html=1;" parent="97" edge="1">
                    <mxGeometry width="30.674846625766868" height="26.66666666666667" as="geometry">
                        <mxPoint x="43.558282208588935" y="64" as="sourcePoint"/>
                        <mxPoint x="43.558282208588935" y="16" as="targetPoint"/>
                    </mxGeometry>
                </mxCell>
                <mxCell id="20" value="" style="endArrow=none;html=1;" parent="97" edge="1">
                    <mxGeometry width="30.674846625766868" height="26.66666666666667" as="geometry">
                        <mxPoint x="19.018404907975537" y="40" as="sourcePoint"/>
                        <mxPoint x="0.6134969325153179" y="26.666666666666686" as="targetPoint"/>
                    </mxGeometry>
                </mxCell>
                <mxCell id="21" value="" style="endArrow=none;html=1;" parent="97" edge="1">
                    <mxGeometry width="30.674846625766868" height="26.66666666666667" as="geometry">
                        <mxPoint x="0.6134969325153179" y="53.33333333333337" as="sourcePoint"/>
                        <mxPoint x="19.018404907975537" y="40" as="targetPoint"/>
                    </mxGeometry>
                </mxCell>
                <mxCell id="26" value="ALU" style="text;html=1;strokeColor=none;fillColor=none;align=center;verticalAlign=middle;whiteSpace=wrap;rounded=0;rotation=270;container=0;" parent="97" vertex="1">
                    <mxGeometry x="18.40490797546022" y="30.933333333333337" width="31.595092024539873" height="18.133333333333336" as="geometry"/>
                </mxCell>
                <mxCell id="98" value="" style="group" parent="1" vertex="1" connectable="0">
                    <mxGeometry x="1144" y="460" width="106" height="200" as="geometry"/>
                </mxCell>
                <mxCell id="3" value="AD" style="text;html=1;strokeColor=none;fillColor=none;align=center;verticalAlign=middle;whiteSpace=wrap;rounded=0;container=0;" parent="98" vertex="1">
                    <mxGeometry y="40" width="40" height="20" as="geometry"/>
                </mxCell>
                <mxCell id="U62jKR7IKzltQJdGUj3Z-36" value="" style="rounded=0;whiteSpace=wrap;html=1;container=0;" parent="98" vertex="1">
                    <mxGeometry x="6" width="100" height="200" as="geometry"/>
                </mxCell>
                <mxCell id="U62jKR7IKzltQJdGUj3Z-37" value="" style="triangle;whiteSpace=wrap;html=1;direction=south;container=0;" parent="98" vertex="1">
                    <mxGeometry x="16" width="30" height="25" as="geometry"/>
                </mxCell>
                <mxCell id="U62jKR7IKzltQJdGUj3Z-47" value="RAM" style="text;html=1;strokeColor=none;fillColor=none;align=center;verticalAlign=middle;whiteSpace=wrap;rounded=0;container=0;" parent="98" vertex="1">
                    <mxGeometry x="26" y="150" width="60" height="30" as="geometry"/>
                </mxCell>
                <mxCell id="29" value="WD" style="text;html=1;strokeColor=none;fillColor=none;align=center;verticalAlign=middle;whiteSpace=wrap;rounded=0;container=0;" parent="98" vertex="1">
                    <mxGeometry x="6" y="139" width="30" height="30" as="geometry"/>
                </mxCell>
                <mxCell id="U62jKR7IKzltQJdGUj3Z-44" value="RD" style="text;html=1;strokeColor=none;fillColor=none;align=center;verticalAlign=middle;whiteSpace=wrap;rounded=0;container=0;" parent="98" vertex="1">
                    <mxGeometry x="86" y="90" width="20" height="10" as="geometry"/>
                </mxCell>
                <mxCell id="U62jKR7IKzltQJdGUj3Z-38" value="&lt;span style=&quot;font-size: 14px&quot;&gt;we_ram&lt;/span&gt;" style="text;html=1;strokeColor=none;fillColor=none;align=center;verticalAlign=middle;whiteSpace=wrap;rounded=0;container=0;" parent="98" vertex="1">
                    <mxGeometry x="46" width="60" height="30" as="geometry"/>
                </mxCell>
                <mxCell id="167" value="AD" style="text;html=1;strokeColor=none;fillColor=none;align=center;verticalAlign=middle;whiteSpace=wrap;rounded=0;" parent="98" vertex="1">
                    <mxGeometry x="11" y="40" width="20" height="20" as="geometry"/>
                </mxCell>
                <mxCell id="99" value="" style="group" parent="1" vertex="1" connectable="0">
                    <mxGeometry x="1340" y="492" width="30" height="80" as="geometry"/>
                </mxCell>
                <mxCell id="59" value="" style="shape=trapezoid;perimeter=trapezoidPerimeter;whiteSpace=wrap;html=1;fixedSize=1;direction=south;size=10;container=0;" parent="99" vertex="1">
                    <mxGeometry width="30" height="80" as="geometry"/>
                </mxCell>
                <mxCell id="60" value="0" style="text;html=1;strokeColor=none;fillColor=none;align=center;verticalAlign=middle;whiteSpace=wrap;rounded=0;container=0;" parent="99" vertex="1">
                    <mxGeometry y="18" width="20" height="14.29" as="geometry"/>
                </mxCell>
                <mxCell id="100" value="1" style="text;html=1;strokeColor=none;fillColor=none;align=center;verticalAlign=middle;whiteSpace=wrap;rounded=0;" parent="99" vertex="1">
                    <mxGeometry x="-10" y="48" width="40" height="20" as="geometry"/>
                </mxCell>
                <mxCell id="101" value="memToReg" style="text;html=1;strokeColor=none;fillColor=none;align=center;verticalAlign=middle;whiteSpace=wrap;rounded=0;" parent="1" vertex="1">
                    <mxGeometry x="728" y="186" width="40" height="20" as="geometry"/>
                </mxCell>
                <mxCell id="102" value="ALUop" style="text;html=1;strokeColor=none;fillColor=none;align=center;verticalAlign=middle;whiteSpace=wrap;rounded=0;" parent="1" vertex="1">
                    <mxGeometry x="720" y="230" width="40" height="20" as="geometry"/>
                </mxCell>
                <mxCell id="103" value="isImm" style="text;html=1;strokeColor=none;fillColor=none;align=center;verticalAlign=middle;whiteSpace=wrap;rounded=0;" parent="1" vertex="1">
                    <mxGeometry x="720" y="250" width="40" height="20" as="geometry"/>
                </mxCell>
                <mxCell id="104" value="" style="endArrow=classic;html=1;entryX=0.574;entryY=-0.014;entryDx=0;entryDy=0;entryPerimeter=0;exitX=1;exitY=0.75;exitDx=0;exitDy=0;" parent="1" source="30" target="U62jKR7IKzltQJdGUj3Z-9" edge="1">
                    <mxGeometry width="50" height="50" relative="1" as="geometry">
                        <mxPoint x="712" y="340" as="sourcePoint"/>
                        <mxPoint x="860" y="500" as="targetPoint"/>
                        <Array as="points">
                            <mxPoint x="735" y="323"/>
                        </Array>
                    </mxGeometry>
                </mxCell>
                <mxCell id="105" value="branch" style="text;html=1;strokeColor=none;fillColor=none;align=center;verticalAlign=middle;whiteSpace=wrap;rounded=0;" parent="1" vertex="1">
                    <mxGeometry x="720" y="270" width="40" height="20" as="geometry"/>
                </mxCell>
                <mxCell id="108" value="" style="group" parent="1" vertex="1" connectable="0">
                    <mxGeometry x="200" y="450" width="30" height="60" as="geometry"/>
                </mxCell>
                <mxCell id="106" value="" style="rounded=0;whiteSpace=wrap;html=1;" parent="108" vertex="1">
                    <mxGeometry width="30" height="60" as="geometry"/>
                </mxCell>
                <mxCell id="107" value="" style="triangle;whiteSpace=wrap;html=1;direction=south;" parent="108" vertex="1">
                    <mxGeometry x="3.75" width="22.5" height="15.384615384615387" as="geometry"/>
                </mxCell>
                <mxCell id="110" value="" style="endArrow=classic;html=1;exitX=1;exitY=0.5;exitDx=0;exitDy=0;entryX=0;entryY=0.378;entryDx=0;entryDy=0;entryPerimeter=0;" parent="1" source="106" target="36" edge="1">
                    <mxGeometry width="50" height="50" relative="1" as="geometry">
                        <mxPoint x="800" y="550" as="sourcePoint"/>
                        <mxPoint x="850" y="500" as="targetPoint"/>
                    </mxGeometry>
                </mxCell>
                <mxCell id="111" value="" style="endArrow=classic;html=1;" parent="1" edge="1">
                    <mxGeometry width="50" height="50" relative="1" as="geometry">
                        <mxPoint x="250" y="480" as="sourcePoint"/>
                        <mxPoint x="290" y="610" as="targetPoint"/>
                        <Array as="points">
                            <mxPoint x="250" y="610"/>
                        </Array>
                    </mxGeometry>
                </mxCell>
                <mxCell id="127" value="" style="group" parent="1" vertex="1" connectable="0">
                    <mxGeometry x="260" y="590" width="73.56" height="90" as="geometry"/>
                </mxCell>
                <mxCell id="112" value="" style="group" parent="127" vertex="1" connectable="0">
                    <mxGeometry x="30" width="43.56" height="90" as="geometry"/>
                </mxCell>
                <mxCell id="113" value="" style="endArrow=none;html=1;" parent="112" edge="1">
                    <mxGeometry width="30.676056338028186" height="30.000000000000004" as="geometry">
                        <mxPoint x="0.6135211267605443" y="30.00000000000002" as="sourcePoint"/>
                        <mxPoint x="0.6135211267605443" as="targetPoint"/>
                    </mxGeometry>
                </mxCell>
                <mxCell id="114" value="" style="endArrow=none;html=1;" parent="112" edge="1">
                    <mxGeometry width="30.676056338028186" height="30.000000000000004" as="geometry">
                        <mxPoint x="0.6135211267605443" y="90" as="sourcePoint"/>
                        <mxPoint x="0.6135211267605443" y="60.00000000000004" as="targetPoint"/>
                    </mxGeometry>
                </mxCell>
                <mxCell id="115" value="" style="endArrow=none;html=1;" parent="112" edge="1">
                    <mxGeometry width="30.676056338028186" height="30.000000000000004" as="geometry">
                        <mxPoint x="43.56" y="18" as="sourcePoint"/>
                        <mxPoint x="0.6135211267605443" as="targetPoint"/>
                    </mxGeometry>
                </mxCell>
                <mxCell id="116" value="" style="endArrow=none;html=1;" parent="112" edge="1">
                    <mxGeometry width="30.676056338028186" height="30.000000000000004" as="geometry">
                        <mxPoint x="43.56" y="72" as="sourcePoint"/>
                        <mxPoint y="90" as="targetPoint"/>
                    </mxGeometry>
                </mxCell>
                <mxCell id="117" value="" style="endArrow=none;html=1;" parent="112" edge="1">
                    <mxGeometry width="30.676056338028186" height="30.000000000000004" as="geometry">
                        <mxPoint x="43.56" y="72" as="sourcePoint"/>
                        <mxPoint x="43.56" y="18" as="targetPoint"/>
                    </mxGeometry>
                </mxCell>
                <mxCell id="118" value="" style="endArrow=none;html=1;" parent="112" edge="1">
                    <mxGeometry width="30.676056338028186" height="30.000000000000004" as="geometry">
                        <mxPoint x="19.019154929577553" y="45" as="sourcePoint"/>
                        <mxPoint x="0.6135211267605443" y="30.00000000000002" as="targetPoint"/>
                    </mxGeometry>
                </mxCell>
                <mxCell id="119" value="" style="endArrow=none;html=1;" parent="112" edge="1">
                    <mxGeometry width="30.676056338028186" height="30.000000000000004" as="geometry">
                        <mxPoint x="0.6135211267605443" y="60.00000000000004" as="sourcePoint"/>
                        <mxPoint x="19.019154929577553" y="45" as="targetPoint"/>
                    </mxGeometry>
                </mxCell>
                <mxCell id="120" value="&lt;font style=&quot;font-size: 21px&quot;&gt;+&lt;/font&gt;" style="text;html=1;strokeColor=none;fillColor=none;align=center;verticalAlign=middle;whiteSpace=wrap;rounded=0;rotation=270;container=0;" parent="112" vertex="1">
                    <mxGeometry x="18.40563380281701" y="34.800000000000004" width="31.59633802816903" height="20.400000000000002" as="geometry"/>
                </mxCell>
                <mxCell id="122" value="" style="endArrow=classic;html=1;" parent="127" edge="1">
                    <mxGeometry width="50" height="50" relative="1" as="geometry">
                        <mxPoint x="10" y="70" as="sourcePoint"/>
                        <mxPoint x="30" y="70" as="targetPoint"/>
                    </mxGeometry>
                </mxCell>
                <mxCell id="124" value="1" style="text;html=1;strokeColor=none;fillColor=none;align=center;verticalAlign=middle;whiteSpace=wrap;rounded=0;" parent="127" vertex="1">
                    <mxGeometry y="50" width="40" height="20" as="geometry"/>
                </mxCell>
                <mxCell id="128" value="" style="group" parent="1" vertex="1" connectable="0">
                    <mxGeometry x="630" y="750" width="43.56" height="90" as="geometry"/>
                </mxCell>
                <mxCell id="129" value="" style="endArrow=none;html=1;" parent="128" edge="1">
                    <mxGeometry width="30.676056338028186" height="30.000000000000007" as="geometry">
                        <mxPoint x="0.6135211267605443" y="30.00000000000002" as="sourcePoint"/>
                        <mxPoint x="0.6135211267605443" as="targetPoint"/>
                    </mxGeometry>
                </mxCell>
                <mxCell id="130" value="" style="endArrow=none;html=1;" parent="128" edge="1">
                    <mxGeometry width="30.676056338028186" height="30.000000000000007" as="geometry">
                        <mxPoint x="0.6135211267605443" y="90" as="sourcePoint"/>
                        <mxPoint x="0.6135211267605443" y="60.00000000000004" as="targetPoint"/>
                    </mxGeometry>
                </mxCell>
                <mxCell id="131" value="" style="endArrow=none;html=1;" parent="128" edge="1">
                    <mxGeometry width="30.676056338028186" height="30.000000000000007" as="geometry">
                        <mxPoint x="43.56" y="18" as="sourcePoint"/>
                        <mxPoint x="0.6135211267605443" as="targetPoint"/>
                    </mxGeometry>
                </mxCell>
                <mxCell id="132" value="" style="endArrow=none;html=1;" parent="128" edge="1">
                    <mxGeometry width="30.676056338028186" height="30.000000000000007" as="geometry">
                        <mxPoint x="43.56" y="72" as="sourcePoint"/>
                        <mxPoint y="90" as="targetPoint"/>
                    </mxGeometry>
                </mxCell>
                <mxCell id="133" value="" style="endArrow=none;html=1;" parent="128" edge="1">
                    <mxGeometry width="30.676056338028186" height="30.000000000000007" as="geometry">
                        <mxPoint x="43.56" y="72" as="sourcePoint"/>
                        <mxPoint x="43.56" y="18" as="targetPoint"/>
                    </mxGeometry>
                </mxCell>
                <mxCell id="134" value="" style="endArrow=none;html=1;" parent="128" edge="1">
                    <mxGeometry width="30.676056338028186" height="30.000000000000007" as="geometry">
                        <mxPoint x="19.019154929577553" y="45" as="sourcePoint"/>
                        <mxPoint x="0.6135211267605443" y="30.00000000000002" as="targetPoint"/>
                    </mxGeometry>
                </mxCell>
                <mxCell id="135" value="" style="endArrow=none;html=1;" parent="128" edge="1">
                    <mxGeometry width="30.676056338028186" height="30.000000000000007" as="geometry">
                        <mxPoint x="0.6135211267605443" y="60.00000000000004" as="sourcePoint"/>
                        <mxPoint x="19.019154929577553" y="45" as="targetPoint"/>
                    </mxGeometry>
                </mxCell>
                <mxCell id="136" value="&lt;font style=&quot;font-size: 21px&quot;&gt;+&lt;/font&gt;" style="text;html=1;strokeColor=none;fillColor=none;align=center;verticalAlign=middle;whiteSpace=wrap;rounded=0;rotation=270;container=0;" parent="128" vertex="1">
                    <mxGeometry x="18.40563380281701" y="34.800000000000004" width="31.59633802816903" height="20.400000000000002" as="geometry"/>
                </mxCell>
                <mxCell id="137" value="" style="endArrow=classic;html=1;" parent="1" edge="1">
                    <mxGeometry width="50" height="50" relative="1" as="geometry">
                        <mxPoint x="590" y="730" as="sourcePoint"/>
                        <mxPoint x="630" y="770" as="targetPoint"/>
                        <Array as="points">
                            <mxPoint x="590" y="770"/>
                        </Array>
                    </mxGeometry>
                </mxCell>
                <mxCell id="138" value="" style="endArrow=classic;html=1;" parent="1" edge="1">
                    <mxGeometry width="50" height="50" relative="1" as="geometry">
                        <mxPoint x="250" y="600" as="sourcePoint"/>
                        <mxPoint x="630" y="830" as="targetPoint"/>
                        <Array as="points">
                            <mxPoint x="250" y="830"/>
                        </Array>
                    </mxGeometry>
                </mxCell>
                <mxCell id="140" value="" style="group" parent="1" vertex="1" connectable="0">
                    <mxGeometry x="120" y="445" width="40" height="70" as="geometry"/>
                </mxCell>
                <mxCell id="141" value="" style="shape=trapezoid;perimeter=trapezoidPerimeter;whiteSpace=wrap;html=1;fixedSize=1;direction=south;size=10;container=0;" parent="140" vertex="1">
                    <mxGeometry x="10" width="30" height="70" as="geometry"/>
                </mxCell>
                <mxCell id="142" value="0" style="text;html=1;strokeColor=none;fillColor=none;align=center;verticalAlign=middle;whiteSpace=wrap;rounded=0;container=0;" parent="140" vertex="1">
                    <mxGeometry x="15" y="10" width="10" height="20" as="geometry"/>
                </mxCell>
                <mxCell id="143" value="1" style="text;html=1;strokeColor=none;fillColor=none;align=center;verticalAlign=middle;whiteSpace=wrap;rounded=0;container=0;" parent="140" vertex="1">
                    <mxGeometry x="15" y="40" width="10" height="20" as="geometry"/>
                </mxCell>
                <mxCell id="144" value="" style="endArrow=classic;html=1;entryX=0;entryY=0.5;entryDx=0;entryDy=0;" parent="1" target="106" edge="1">
                    <mxGeometry width="50" height="50" relative="1" as="geometry">
                        <mxPoint x="160" y="480" as="sourcePoint"/>
                        <mxPoint x="720" y="690" as="targetPoint"/>
                    </mxGeometry>
                </mxCell>
                <mxCell id="145" value="" style="endArrow=classic;html=1;exitX=0.75;exitY=1;exitDx=0;exitDy=0;entryX=0.75;entryY=1;entryDx=0;entryDy=0;" parent="1" source="136" target="141" edge="1">
                    <mxGeometry width="50" height="50" relative="1" as="geometry">
                        <mxPoint x="700" y="510" as="sourcePoint"/>
                        <mxPoint x="140" y="610" as="targetPoint"/>
                        <Array as="points">
                            <mxPoint x="730" y="787"/>
                            <mxPoint x="730" y="870"/>
                            <mxPoint x="60" y="870"/>
                            <mxPoint x="60" y="498"/>
                        </Array>
                    </mxGeometry>
                </mxCell>
                <mxCell id="146" value="" style="endArrow=classic;html=1;exitX=0.5;exitY=1;exitDx=0;exitDy=0;entryX=0.25;entryY=1;entryDx=0;entryDy=0;" parent="1" source="120" target="141" edge="1">
                    <mxGeometry width="50" height="50" relative="1" as="geometry">
                        <mxPoint x="700" y="510" as="sourcePoint"/>
                        <mxPoint x="130" y="635" as="targetPoint"/>
                        <Array as="points">
                            <mxPoint x="400" y="635"/>
                            <mxPoint x="400" y="730"/>
                            <mxPoint x="70" y="730"/>
                            <mxPoint x="70" y="463"/>
                        </Array>
                    </mxGeometry>
                </mxCell>
                <mxCell id="149" value="" style="endArrow=classic;html=1;exitX=-0.059;exitY=0.441;exitDx=0;exitDy=0;exitPerimeter=0;entryX=0;entryY=0.25;entryDx=0;entryDy=0;entryPerimeter=0;" parent="1" target="158" edge="1">
                    <mxGeometry width="50" height="50" relative="1" as="geometry">
                        <mxPoint x="712.0500000000002" y="290" as="sourcePoint"/>
                        <mxPoint x="1140" y="290" as="targetPoint"/>
                    </mxGeometry>
                </mxCell>
                <mxCell id="151" value="" style="endArrow=classic;html=1;exitX=1;exitY=1;exitDx=0;exitDy=0;entryX=0;entryY=0.75;entryDx=0;entryDy=0;entryPerimeter=0;" parent="1" source="26" target="158" edge="1">
                    <mxGeometry width="50" height="50" relative="1" as="geometry">
                        <mxPoint x="700" y="510" as="sourcePoint"/>
                        <mxPoint x="1140" y="320" as="targetPoint"/>
                        <Array as="points">
                            <mxPoint x="1140" y="494"/>
                            <mxPoint x="1140" y="310"/>
                        </Array>
                    </mxGeometry>
                </mxCell>
                <mxCell id="155" value="we_reg" style="text;html=1;strokeColor=none;fillColor=none;align=center;verticalAlign=middle;whiteSpace=wrap;rounded=0;" parent="1" vertex="1">
                    <mxGeometry x="720" y="300" width="40" height="20" as="geometry"/>
                </mxCell>
                <mxCell id="158" value="" style="shape=or;whiteSpace=wrap;html=1;" parent="1" vertex="1">
                    <mxGeometry x="1170" y="280" width="40" height="40" as="geometry"/>
                </mxCell>
                <mxCell id="159" value="" style="endArrow=classic;html=1;exitX=1;exitY=0.5;exitDx=0;exitDy=0;exitPerimeter=0;" parent="1" source="158" edge="1">
                    <mxGeometry width="50" height="50" relative="1" as="geometry">
                        <mxPoint x="700" y="510" as="sourcePoint"/>
                        <mxPoint x="150" y="448" as="targetPoint"/>
                        <Array as="points">
                            <mxPoint x="1270" y="300"/>
                            <mxPoint x="1270" y="100"/>
                            <mxPoint x="150" y="100"/>
                        </Array>
                    </mxGeometry>
                </mxCell>
                <mxCell id="160" value="" style="endArrow=classic;html=1;exitX=0.5;exitY=0;exitDx=0;exitDy=0;entryX=0;entryY=0.75;entryDx=0;entryDy=0;" parent="1" source="59" target="U62jKR7IKzltQJdGUj3Z-9" edge="1">
                    <mxGeometry width="50" height="50" relative="1" as="geometry">
                        <mxPoint x="770" y="500" as="sourcePoint"/>
                        <mxPoint x="820" y="450" as="targetPoint"/>
                        <Array as="points">
                            <mxPoint x="1410" y="532"/>
                            <mxPoint x="1410" y="700"/>
                            <mxPoint x="600" y="700"/>
                            <mxPoint x="600" y="585"/>
                        </Array>
                    </mxGeometry>
                </mxCell>
                <mxCell id="162" value="" style="endArrow=classic;html=1;exitX=1;exitY=0.5;exitDx=0;exitDy=0;entryX=0.01;entryY=0.55;entryDx=0;entryDy=0;entryPerimeter=0;" parent="1" source="161" target="U62jKR7IKzltQJdGUj3Z-9" edge="1">
                    <mxGeometry width="50" height="50" relative="1" as="geometry">
                        <mxPoint x="770" y="500" as="sourcePoint"/>
                        <mxPoint x="820" y="450" as="targetPoint"/>
                    </mxGeometry>
                </mxCell>
                <mxCell id="163" value="jump flag" style="text;html=1;strokeColor=none;fillColor=none;align=center;verticalAlign=middle;whiteSpace=wrap;rounded=0;" parent="1" vertex="1">
                    <mxGeometry x="1090" y="470" width="40" height="20" as="geometry"/>
                </mxCell>
                <mxCell id="164" value="" style="endArrow=classic;html=1;entryX=0;entryY=0.5;entryDx=0;entryDy=0;" parent="1" target="30" edge="1">
                    <mxGeometry width="50" height="50" relative="1" as="geometry">
                        <mxPoint x="420" y="480" as="sourcePoint"/>
                        <mxPoint x="820" y="440" as="targetPoint"/>
                        <Array as="points">
                            <mxPoint x="420" y="275"/>
                        </Array>
                    </mxGeometry>
                </mxCell>
                <mxCell id="165" value="instruction" style="text;html=1;strokeColor=none;fillColor=none;align=center;verticalAlign=middle;whiteSpace=wrap;rounded=0;" parent="1" vertex="1">
                    <mxGeometry x="620" y="265" width="60" height="20" as="geometry"/>
                </mxCell>
            </root>
        </mxGraphModel>
    </diagram>
</mxfile>